# xmcd CD database file
#
# Track frame offsets:
#	150
#	24992
#	71080
#	99847
#	133662
#	163070
#	191345
#	229870
#
# Disc length: 3450 seconds
#
# Revision: 1
# Processed by: cddbd v1.5.2PL0 Copyright (c) Steve Scherf et al.
# Submitted via: CDex 1.70beta2
#
DISCID=610d7808
DTITLE=Graham Breedlove Sextet - Coming Home
DYEAR=2003
DGENRE=Jazz
TTITLE0=Grant Street
TTITLE1=Perseverance
TTITLE2=Buhaina
TTITLE3=Inner Beauty
TTITLE4=Coming Home
TTITLE5=The Messenger
TTITLE6=Then And Now
TTITLE7=Festival Time in the Ville
EXTD=YEAR: 2003
EXTT0=
EXTT1=
EXTT2=
EXTT3=
EXTT4=
EXTT5=
EXTT6=
EXTT7=
PLAYORDER=
